G04 #@! TF.GenerationSoftware,KiCad,Pcbnew,8.0.1*
G04 #@! TF.CreationDate,2024-05-27T02:36:23-05:00*
G04 #@! TF.ProjectId,Minimal-6502,53656172-6c65-4363-9530-322e6b696361,rev?*
G04 #@! TF.SameCoordinates,Original*
G04 #@! TF.FileFunction,Soldermask,Bot*
G04 #@! TF.FilePolarity,Negative*
%FSLAX46Y46*%
G04 Gerber Fmt 4.6, Leading zero omitted, Abs format (unit mm)*
G04 Created by KiCad (PCBNEW 8.0.1) date 2024-05-27 02:36:23*
%MOMM*%
%LPD*%
G01*
G04 APERTURE LIST*
G04 Aperture macros list*
%AMRoundRect*
0 Rectangle with rounded corners*
0 $1 Rounding radius*
0 $2 $3 $4 $5 $6 $7 $8 $9 X,Y pos of 4 corners*
0 Add a 4 corners polygon primitive as box body*
4,1,4,$2,$3,$4,$5,$6,$7,$8,$9,$2,$3,0*
0 Add four circle primitives for the rounded corners*
1,1,$1+$1,$2,$3*
1,1,$1+$1,$4,$5*
1,1,$1+$1,$6,$7*
1,1,$1+$1,$8,$9*
0 Add four rect primitives between the rounded corners*
20,1,$1+$1,$2,$3,$4,$5,0*
20,1,$1+$1,$4,$5,$6,$7,0*
20,1,$1+$1,$6,$7,$8,$9,0*
20,1,$1+$1,$8,$9,$2,$3,0*%
G04 Aperture macros list end*
%ADD10R,1.700000X1.700000*%
%ADD11O,1.700000X1.700000*%
%ADD12C,1.600000*%
%ADD13O,1.600000X1.600000*%
%ADD14R,3.500000X3.500000*%
%ADD15RoundRect,0.750000X-1.000000X0.750000X-1.000000X-0.750000X1.000000X-0.750000X1.000000X0.750000X0*%
%ADD16RoundRect,0.875000X-0.875000X0.875000X-0.875000X-0.875000X0.875000X-0.875000X0.875000X0.875000X0*%
%ADD17C,1.700000*%
%ADD18C,3.500000*%
%ADD19R,1.600000X1.600000*%
%ADD20C,0.800000*%
%ADD21C,6.400000*%
%ADD22C,2.000000*%
%ADD23R,1.846667X3.480000*%
G04 APERTURE END LIST*
D10*
X144780000Y-114300000D03*
D11*
X147320000Y-114300000D03*
X149859999Y-114300000D03*
X152400000Y-114300000D03*
X154940000Y-114300000D03*
X157480000Y-114300000D03*
X160020000Y-114300000D03*
X162560001Y-114300000D03*
X165100000Y-114300000D03*
X167640000Y-114300000D03*
X170180000Y-114300000D03*
X172719999Y-114300000D03*
X175260000Y-114300000D03*
X177800000Y-114300000D03*
D12*
X149860000Y-104140000D03*
D13*
X157480000Y-104140000D03*
D12*
X149860000Y-73660000D03*
D13*
X149860000Y-66040000D03*
D12*
X142240000Y-104140000D03*
D13*
X142240000Y-96520000D03*
D12*
X142240000Y-106680000D03*
D13*
X142240000Y-114300000D03*
D10*
X132080000Y-114300000D03*
D11*
X129540000Y-114300000D03*
X132080000Y-111760000D03*
X129540000Y-111760000D03*
X132080000Y-109220001D03*
X129540000Y-109220000D03*
X132080000Y-106680000D03*
X129540000Y-106680000D03*
X132080000Y-104140000D03*
X129540000Y-104140000D03*
X132080000Y-101600000D03*
X129540000Y-101600000D03*
X132080000Y-99060000D03*
X129540000Y-99060000D03*
X132080000Y-96519999D03*
X129540000Y-96520000D03*
X132080000Y-93980000D03*
X129540000Y-93980000D03*
X132080000Y-91440000D03*
X129540000Y-91440000D03*
X132080000Y-88900000D03*
X129540000Y-88900000D03*
X132080000Y-86360001D03*
X129540000Y-86360000D03*
X132080000Y-83820000D03*
X129540000Y-83820000D03*
X132080000Y-81280000D03*
X129540000Y-81280000D03*
X132080000Y-78740000D03*
X129540000Y-78740000D03*
X132080000Y-76200001D03*
X129540000Y-76200000D03*
X132080000Y-73659999D03*
X129540000Y-73660000D03*
X132080000Y-71120000D03*
X129540000Y-71120000D03*
X132080000Y-68580000D03*
X129540000Y-68580000D03*
X132080000Y-66040000D03*
X129540000Y-66040000D03*
D14*
X142240000Y-64770000D03*
D15*
X142240000Y-58770000D03*
D16*
X137540000Y-61770000D03*
D12*
X184150001Y-60960000D03*
D13*
X176530001Y-60960000D03*
X176530001Y-57150000D03*
D12*
X184150001Y-57150000D03*
D10*
X185420000Y-71120000D03*
D11*
X187960000Y-71120000D03*
X190499999Y-71120000D03*
D10*
X185420001Y-68580000D03*
D11*
X187960001Y-68580000D03*
X190500000Y-68580000D03*
D10*
X185420001Y-66040000D03*
D11*
X187960001Y-66040000D03*
X190500000Y-66040000D03*
D10*
X165140001Y-59917500D03*
D17*
X167640001Y-59917500D03*
X167640001Y-57917499D03*
X165140001Y-57917499D03*
D18*
X160370001Y-55207500D03*
X172410001Y-55207500D03*
D12*
X190500000Y-53340000D03*
X193000000Y-53340000D03*
D19*
X149940000Y-58420000D03*
D12*
X154940000Y-58420000D03*
D20*
X221120000Y-121920000D03*
X221822944Y-120222944D03*
X221822944Y-123617056D03*
X223520000Y-119520000D03*
D21*
X223520000Y-121920000D03*
D20*
X223520000Y-124320000D03*
X225217056Y-120222944D03*
X225217056Y-123617056D03*
X225920000Y-121920000D03*
X129680000Y-121920000D03*
X130382944Y-120222944D03*
X130382944Y-123617056D03*
X132080000Y-119520000D03*
D21*
X132080000Y-121920000D03*
D20*
X132080000Y-124320000D03*
X133777056Y-120222944D03*
X133777056Y-123617056D03*
X134480000Y-121920000D03*
X221120000Y-55880000D03*
X221822944Y-54182944D03*
X221822944Y-57577056D03*
X223520000Y-53480000D03*
D21*
X223520000Y-55880000D03*
D20*
X223520000Y-58280000D03*
X225217056Y-54182944D03*
X225217056Y-57577056D03*
X225920000Y-55880000D03*
X129680000Y-55880000D03*
X130382944Y-54182944D03*
X130382944Y-57577056D03*
X132080000Y-53480000D03*
D21*
X132080000Y-55880000D03*
D20*
X132080000Y-58280000D03*
X133777056Y-54182944D03*
X133777056Y-57577056D03*
X134480000Y-55880000D03*
D19*
X137160000Y-81280000D03*
D12*
X144780000Y-81280000D03*
X144780000Y-73660000D03*
X137160000Y-73660000D03*
D13*
X144780000Y-86360000D03*
X147320000Y-86360000D03*
X149860000Y-86360000D03*
X152400000Y-86360000D03*
X154940000Y-86360000D03*
X157480000Y-86360000D03*
X160020000Y-86360000D03*
X162560000Y-86360000D03*
X165100000Y-86360000D03*
X167640000Y-86360000D03*
X170180000Y-86360000D03*
X172720000Y-86360000D03*
X175260000Y-86360000D03*
X177800000Y-86360000D03*
X180340000Y-86360000D03*
X182880000Y-86360000D03*
X185420000Y-86360000D03*
X187960000Y-86360000D03*
X190500000Y-86360000D03*
X193040000Y-86360000D03*
X193040000Y-101600000D03*
X190500000Y-101600000D03*
X187960000Y-101600000D03*
X185420001Y-101600000D03*
X182879999Y-101600000D03*
X180340000Y-101600000D03*
X177800000Y-101600000D03*
X175260000Y-101600000D03*
X172719999Y-101600000D03*
X170180000Y-101600000D03*
X167640000Y-101600000D03*
X165100000Y-101600000D03*
X162560001Y-101600000D03*
X160020000Y-101600000D03*
X157480000Y-101600000D03*
X154940000Y-101600000D03*
X152400000Y-101600000D03*
X149859999Y-101600000D03*
X147320000Y-101600000D03*
D19*
X144780000Y-101600000D03*
D13*
X182880000Y-106680000D03*
X185420000Y-106680000D03*
X187960000Y-106680000D03*
X190500000Y-106680000D03*
X193040000Y-106680000D03*
X195580000Y-106680000D03*
X198120000Y-106680000D03*
X200660000Y-106680000D03*
X203200000Y-106680000D03*
X205740000Y-106680000D03*
X208280000Y-106680000D03*
X210820000Y-106680000D03*
X213360000Y-106680000D03*
X215900000Y-106680000D03*
X215900000Y-121920000D03*
X213360000Y-121920000D03*
X210819999Y-121920000D03*
X208280000Y-121920000D03*
X205740000Y-121920000D03*
X203200000Y-121920000D03*
X200660001Y-121920000D03*
X198120000Y-121920000D03*
X195580000Y-121920000D03*
X193040000Y-121920000D03*
X190500000Y-121920000D03*
X187959999Y-121920000D03*
X185420000Y-121920000D03*
D19*
X182880000Y-121920000D03*
X144780000Y-121920000D03*
D13*
X147320000Y-121920000D03*
X149859999Y-121920000D03*
X152400000Y-121920000D03*
X154940000Y-121920000D03*
X157480000Y-121920000D03*
X160020000Y-121920000D03*
X162560001Y-121920000D03*
X165100000Y-121920000D03*
X167640000Y-121920000D03*
X170180000Y-121920000D03*
X172719999Y-121920000D03*
X175260000Y-121920000D03*
X177800000Y-121920000D03*
X177800000Y-106680000D03*
X175260000Y-106680000D03*
X172720000Y-106680000D03*
X170180000Y-106680000D03*
X167640000Y-106680000D03*
X165100000Y-106680000D03*
X162560000Y-106680000D03*
X160020000Y-106680000D03*
X157480000Y-106680000D03*
X154940000Y-106680000D03*
X152400000Y-106680000D03*
X149860000Y-106680000D03*
X147320000Y-106680000D03*
X144780000Y-106680000D03*
D19*
X200660000Y-88900000D03*
D13*
X203200000Y-88900000D03*
X205739999Y-88900000D03*
X208280000Y-88900000D03*
X210820000Y-88900000D03*
X213360000Y-88900000D03*
X215900000Y-88900000D03*
X215900000Y-81280000D03*
X213360000Y-81280000D03*
X210820000Y-81280000D03*
X208280000Y-81280000D03*
X205740000Y-81280000D03*
X203200000Y-81280000D03*
X200660000Y-81280000D03*
X200660000Y-93980000D03*
X203200000Y-93980000D03*
X205740000Y-93980000D03*
X208280000Y-93980000D03*
X210820000Y-93980000D03*
X213360000Y-93980000D03*
X215900000Y-93980000D03*
X215900000Y-101600000D03*
X213360000Y-101600000D03*
X210820000Y-101600000D03*
X208280000Y-101600000D03*
X205739999Y-101600000D03*
X203200000Y-101600000D03*
D19*
X200660000Y-101600000D03*
X198119999Y-68580000D03*
D13*
X200659999Y-68580000D03*
X203199998Y-68580000D03*
X205739999Y-68580000D03*
X208279999Y-68580000D03*
X210819999Y-68580000D03*
X213359999Y-68580000D03*
X215900000Y-68580000D03*
X215899999Y-60960000D03*
X213359999Y-60960000D03*
X210819999Y-60960000D03*
X208279999Y-60960000D03*
X205739999Y-60960000D03*
X203199999Y-60960000D03*
X200659999Y-60960000D03*
X198119999Y-60960000D03*
D19*
X152400000Y-81280000D03*
D13*
X154940000Y-81280000D03*
X157479999Y-81280000D03*
X160020000Y-81280000D03*
X162560000Y-81280000D03*
X165100000Y-81280000D03*
X167640000Y-81280000D03*
X170180001Y-81280000D03*
X172720000Y-81280000D03*
X175260000Y-81280000D03*
X177800000Y-81280000D03*
X180339999Y-81280000D03*
X180340000Y-66040000D03*
X177800000Y-66040000D03*
X175260000Y-66040000D03*
X172720000Y-66040000D03*
X170180000Y-66040000D03*
X167640000Y-66040000D03*
X165100000Y-66040000D03*
X162560000Y-66040000D03*
X160020000Y-66040000D03*
X157480000Y-66040000D03*
X154940000Y-66040000D03*
X152400000Y-66040000D03*
D22*
X220345000Y-83820000D03*
X220345000Y-77320000D03*
X224845001Y-83820000D03*
X224845000Y-77319999D03*
D12*
X185420000Y-81280000D03*
D13*
X193040000Y-81280000D03*
X142240000Y-93980000D03*
D12*
X142240000Y-86360000D03*
D23*
X207354999Y-52682500D03*
X204584999Y-52682500D03*
X201814999Y-52682500D03*
X199044999Y-52682500D03*
D12*
X200619999Y-57150000D03*
X198119999Y-57150000D03*
X215859999Y-72390000D03*
X213359999Y-72390000D03*
X205739999Y-72390000D03*
X203239999Y-72390000D03*
X210779999Y-72390000D03*
X208279999Y-72390000D03*
X200619999Y-72390000D03*
X198119999Y-72390000D03*
M02*
