M48
; DRILL file {KiCad 8.0.1} date 2024-05-27T02:36:46-0500
; FORMAT={-:-/ absolute / metric / decimal}
; #@! TF.CreationDate,2024-05-27T02:36:46-05:00
; #@! TF.GenerationSoftware,Kicad,Pcbnew,8.0.1
; #@! TF.FileFunction,Plated,1,2,PTH
FMAT,2
METRIC
; #@! TA.AperFunction,Plated,PTH,ViaDrill
T1C0.300
; #@! TA.AperFunction,Plated,PTH,ComponentDrill
T2C0.500
; #@! TA.AperFunction,Plated,PTH,ComponentDrill
T3C0.800
; #@! TA.AperFunction,Plated,PTH,ComponentDrill
T4C0.920
; #@! TA.AperFunction,Plated,PTH,ComponentDrill
T5C1.000
; #@! TA.AperFunction,Plated,PTH,ComponentDrill
T6C1.100
; #@! TA.AperFunction,Plated,PTH,ComponentDrill
T7C2.330
; #@! TA.AperFunction,Plated,PTH,ComponentDrill
T8C3.200
%
G90
G05
T1
X133.985Y-90.17
X134.62Y-95.25
X135.255Y-116.84
X135.89Y-97.155
X135.89Y-110.49
X136.525Y-97.79
X136.525Y-102.87
X136.525Y-105.41
X136.525Y-107.95
X136.525Y-111.125
X137.16Y-93.98
X137.16Y-98.425
X137.16Y-111.76
X137.795Y-90.17
X137.795Y-99.695
X137.795Y-112.395
X138.43Y-100.647
X138.43Y-113.03
X139.065Y-86.36
X139.065Y-97.155
X139.065Y-100.33
X139.065Y-113.665
X139.065Y-120.65
X139.065Y-124.46
X139.7Y-74.93
X139.7Y-77.47
X139.7Y-79.375
X139.7Y-100.965
X139.7Y-114.935
X140.335Y-85.725
X140.335Y-121.92
X140.97Y-75.565
X140.97Y-100.33
X142.24Y-76.2
X142.24Y-77.47
X142.24Y-80.645
X142.24Y-90.17
X142.24Y-109.22
X143.51Y-88.265
X143.51Y-104.775
X143.51Y-116.205
X144.78Y-93.98
X144.78Y-96.52
X146.05Y-116.84
X147.32Y-83.82
X147.32Y-125.095
X147.955Y-85.09
X147.955Y-90.17
X147.955Y-92.71
X148.59Y-97.79
X148.59Y-102.87
X148.59Y-116.84
X149.86Y-125.095
X151.13Y-92.71
X151.13Y-95.885
X151.13Y-116.84
X152.4Y-90.17
X152.4Y-97.79
X152.4Y-119.38
X153.67Y-96.52
X153.67Y-116.84
X154.94Y-69.85
X154.94Y-97.79
X154.94Y-118.745
X156.21Y-78.105
X156.21Y-95.25
X156.21Y-116.84
X157.48Y-71.12
X157.48Y-83.185
X157.48Y-97.155
X157.48Y-113.03
X158.115Y-116.84
X158.75Y-69.85
X158.75Y-89.535
X158.75Y-124.46
X159.004Y-68.58
X159.385Y-116.84
X160.02Y-71.12
X160.02Y-83.185
X160.02Y-92.71
X160.02Y-112.395
X160.655Y-67.945
X160.655Y-116.84
X161.29Y-123.825
X161.925Y-103.505
X161.925Y-116.84
X162.56Y-71.12
X162.56Y-75.565
X162.56Y-83.185
X162.56Y-97.79
X162.56Y-111.76
X163.195Y-67.945
X163.195Y-90.17
X163.195Y-92.71
X163.195Y-104.775
X163.195Y-116.84
X163.83Y-88.9
X163.83Y-107.315
X163.83Y-120.65
X164.465Y-90.17
X164.465Y-92.71
X164.465Y-116.84
X165.1Y-70.485
X165.1Y-75.565
X165.1Y-83.185
X165.1Y-97.79
X165.1Y-111.125
X165.735Y-67.945
X165.735Y-99.695
X165.735Y-104.775
X165.735Y-116.84
X166.37Y-90.17
X166.37Y-92.71
X167.64Y-70.485
X167.64Y-72.39
X167.64Y-83.185
X167.64Y-97.79
X167.64Y-104.14
X167.64Y-110.49
X167.64Y-119.38
X168.275Y-67.945
X168.91Y-90.17
X168.91Y-92.71
X169.545Y-118.745
X170.18Y-70.485
X170.18Y-72.39
X170.18Y-97.79
X170.18Y-104.14
X170.18Y-119.38
X170.18Y-124.46
X170.815Y-67.945
X170.815Y-76.835
X171.45Y-88.9
X171.45Y-90.17
X171.45Y-92.71
X171.45Y-120.015
X172.72Y-70.485
X172.72Y-72.39
X172.72Y-76.835
X172.72Y-97.79
X172.72Y-104.775
X172.72Y-119.38
X172.72Y-123.825
X173.355Y-67.945
X173.355Y-94.615
X173.99Y-88.9
X173.99Y-90.17
X173.99Y-92.71
X173.99Y-112.395
X173.99Y-120.65
X175.26Y-70.485
X175.26Y-76.835
X175.26Y-93.98
X175.26Y-97.79
X175.26Y-119.38
X175.895Y-67.945
X175.895Y-83.82
X175.895Y-104.775
X176.53Y-87.63
X176.53Y-90.17
X176.53Y-92.71
X177.165Y-104.775
X177.165Y-113.03
X177.8Y-70.485
X177.8Y-73.025
X177.8Y-93.345
X177.8Y-97.79
X178.435Y-90.17
X178.435Y-92.075
X178.435Y-120.015
X179.07Y-67.945
X179.705Y-90.17
X179.705Y-92.71
X179.705Y-97.79
X180.34Y-73.025
X180.34Y-91.44
X180.34Y-98.552
X180.975Y-97.79
X180.975Y-113.665
X180.975Y-118.745
X181.356Y-69.088
X181.61Y-90.17
X181.61Y-92.71
X181.61Y-116.84
X181.61Y-118.11
X182.245Y-104.775
X182.245Y-117.475
X182.88Y-83.82
X182.88Y-89.535
X182.88Y-98.425
X183.515Y-103.505
X183.515Y-114.935
X184.15Y-90.17
X184.15Y-92.71
X184.15Y-97.79
X184.15Y-100.33
X184.785Y-95.885
X185.42Y-97.79
X185.42Y-125.095
X186.69Y-88.9
X186.69Y-90.17
X186.69Y-93.345
X186.69Y-99.695
X186.69Y-114.935
X187.325Y-57.785
X187.325Y-77.47
X187.325Y-92.075
X187.96Y-54.61
X187.96Y-81.28
X187.96Y-96.52
X187.96Y-124.46
X188.595Y-60.325
X189.23Y-58.42
X189.23Y-90.17
X189.23Y-99.06
X189.23Y-108.585
X189.23Y-111.76
X189.865Y-62.865
X190.5Y-60.325
X190.5Y-116.205
X191.135Y-99.695
X191.77Y-90.17
X191.77Y-93.345
X191.77Y-111.125
X191.77Y-114.3
X192.405Y-55.88
X192.405Y-108.585
X193.04Y-95.25
X193.04Y-113.665
X193.675Y-64.77
X194.056Y-99.695
X194.31Y-110.49
X194.31Y-114.3
X194.945Y-55.88
X194.945Y-59.055
X194.945Y-64.77
X194.945Y-81.915
X195.58Y-91.44
X195.58Y-113.03
X196.85Y-85.725
X196.85Y-104.775
X196.85Y-108.585
X196.85Y-114.3
X197.485Y-80.645
X197.485Y-99.695
X198.12Y-93.345
X198.12Y-112.395
X199.39Y-78.105
X199.39Y-108.585
X199.39Y-114.3
X200.66Y-111.76
X201.295Y-114.3
X201.93Y-80.645
X201.93Y-91.948
X201.93Y-104.775
X201.93Y-120.65
X202.565Y-114.3
X203.2Y-111.125
X204.47Y-100.33
X204.47Y-108.585
X204.47Y-114.3
X205.74Y-58.42
X205.74Y-74.93
X205.74Y-116.84
X206.375Y-110.49
X207.01Y-59.055
X207.01Y-62.865
X207.01Y-99.06
X207.01Y-108.585
X207.645Y-114.3
X208.28Y-65.405
X208.28Y-78.105
X208.28Y-117.475
X208.28Y-123.825
X208.915Y-64.77
X209.55Y-57.15
X209.55Y-108.585
X209.55Y-114.3
X210.82Y-97.155
X210.82Y-118.11
X210.82Y-123.19
X211.455Y-64.135
X212.09Y-104.775
X212.09Y-108.585
X212.09Y-114.3
X212.725Y-62.865
X212.725Y-66.04
X213.36Y-98.425
X213.36Y-118.745
X213.36Y-120.015
X213.995Y-64.135
X214.63Y-114.3
X215.9Y-63.5
X215.9Y-119.38
X216.535Y-114.3
X219.71Y-114.3
T2
X129.68Y-55.88
X129.68Y-121.92
X130.383Y-54.183
X130.383Y-57.577
X130.383Y-120.223
X130.383Y-123.617
X132.08Y-53.48
X132.08Y-58.28
X132.08Y-119.52
X132.08Y-124.32
X133.777Y-54.183
X133.777Y-57.577
X133.777Y-120.223
X133.777Y-123.617
X134.48Y-55.88
X134.48Y-121.92
X221.12Y-55.88
X221.12Y-121.92
X221.823Y-54.183
X221.823Y-57.577
X221.823Y-120.223
X221.823Y-123.617
X223.52Y-53.48
X223.52Y-58.28
X223.52Y-119.52
X223.52Y-124.32
X225.217Y-54.183
X225.217Y-57.577
X225.217Y-120.223
X225.217Y-123.617
X225.92Y-55.88
X225.92Y-121.92
T3
X137.16Y-73.66
X137.16Y-81.28
X142.24Y-86.36
X142.24Y-93.98
X142.24Y-96.52
X142.24Y-104.14
X142.24Y-106.68
X142.24Y-114.3
X144.78Y-73.66
X144.78Y-81.28
X144.78Y-86.36
X144.78Y-101.6
X144.78Y-106.68
X144.78Y-121.92
X147.32Y-86.36
X147.32Y-101.6
X147.32Y-106.68
X147.32Y-121.92
X149.86Y-101.6
X149.86Y-121.92
X149.86Y-66.04
X149.86Y-73.66
X149.86Y-86.36
X149.86Y-104.14
X149.86Y-106.68
X149.94Y-58.42
X152.4Y-66.04
X152.4Y-81.28
X152.4Y-86.36
X152.4Y-101.6
X152.4Y-106.68
X152.4Y-121.92
X154.94Y-58.42
X154.94Y-66.04
X154.94Y-81.28
X154.94Y-86.36
X154.94Y-101.6
X154.94Y-106.68
X154.94Y-121.92
X157.48Y-81.28
X157.48Y-66.04
X157.48Y-86.36
X157.48Y-101.6
X157.48Y-104.14
X157.48Y-106.68
X157.48Y-121.92
X160.02Y-66.04
X160.02Y-81.28
X160.02Y-86.36
X160.02Y-101.6
X160.02Y-106.68
X160.02Y-121.92
X162.56Y-66.04
X162.56Y-81.28
X162.56Y-86.36
X162.56Y-106.68
X162.56Y-101.6
X162.56Y-121.92
X165.1Y-66.04
X165.1Y-81.28
X165.1Y-86.36
X165.1Y-101.6
X165.1Y-106.68
X165.1Y-121.92
X167.64Y-66.04
X167.64Y-81.28
X167.64Y-86.36
X167.64Y-101.6
X167.64Y-106.68
X167.64Y-121.92
X170.18Y-66.04
X170.18Y-86.36
X170.18Y-101.6
X170.18Y-106.68
X170.18Y-121.92
X170.18Y-81.28
X172.72Y-101.6
X172.72Y-121.92
X172.72Y-66.04
X172.72Y-81.28
X172.72Y-86.36
X172.72Y-106.68
X175.26Y-66.04
X175.26Y-81.28
X175.26Y-86.36
X175.26Y-101.6
X175.26Y-106.68
X175.26Y-121.92
X176.53Y-57.15
X176.53Y-60.96
X177.8Y-66.04
X177.8Y-81.28
X177.8Y-86.36
X177.8Y-101.6
X177.8Y-106.68
X177.8Y-121.92
X180.34Y-81.28
X180.34Y-66.04
X180.34Y-86.36
X180.34Y-101.6
X182.88Y-101.6
X182.88Y-86.36
X182.88Y-106.68
X182.88Y-121.92
X184.15Y-57.15
X184.15Y-60.96
X185.42Y-81.28
X185.42Y-86.36
X185.42Y-106.68
X185.42Y-121.92
X185.42Y-101.6
X187.96Y-121.92
X187.96Y-86.36
X187.96Y-101.6
X187.96Y-106.68
X190.5Y-53.34
X190.5Y-86.36
X190.5Y-101.6
X190.5Y-106.68
X190.5Y-121.92
X193.0Y-53.34
X193.04Y-81.28
X193.04Y-86.36
X193.04Y-101.6
X193.04Y-106.68
X193.04Y-121.92
X195.58Y-106.68
X195.58Y-121.92
X198.12Y-57.15
X198.12Y-60.96
X198.12Y-68.58
X198.12Y-72.39
X198.12Y-106.68
X198.12Y-121.92
X200.62Y-57.15
X200.62Y-72.39
X200.66Y-60.96
X200.66Y-68.58
X200.66Y-81.28
X200.66Y-88.9
X200.66Y-93.98
X200.66Y-101.6
X200.66Y-106.68
X200.66Y-121.92
X203.2Y-68.58
X203.2Y-60.96
X203.2Y-81.28
X203.2Y-88.9
X203.2Y-93.98
X203.2Y-101.6
X203.2Y-106.68
X203.2Y-121.92
X203.24Y-72.39
X205.74Y-60.96
X205.74Y-68.58
X205.74Y-72.39
X205.74Y-88.9
X205.74Y-101.6
X205.74Y-81.28
X205.74Y-93.98
X205.74Y-106.68
X205.74Y-121.92
X208.28Y-60.96
X208.28Y-68.58
X208.28Y-72.39
X208.28Y-81.28
X208.28Y-88.9
X208.28Y-93.98
X208.28Y-101.6
X208.28Y-106.68
X208.28Y-121.92
X210.78Y-72.39
X210.82Y-60.96
X210.82Y-68.58
X210.82Y-121.92
X210.82Y-81.28
X210.82Y-88.9
X210.82Y-93.98
X210.82Y-101.6
X210.82Y-106.68
X213.36Y-60.96
X213.36Y-68.58
X213.36Y-72.39
X213.36Y-81.28
X213.36Y-88.9
X213.36Y-93.98
X213.36Y-101.6
X213.36Y-106.68
X213.36Y-121.92
X215.86Y-72.39
X215.9Y-60.96
X215.9Y-68.58
X215.9Y-81.28
X215.9Y-88.9
X215.9Y-93.98
X215.9Y-101.6
X215.9Y-106.68
X215.9Y-121.92
T4
X165.14Y-57.917
X165.14Y-59.917
X167.64Y-57.917
X167.64Y-59.917
T5
X129.54Y-66.04
X129.54Y-68.58
X129.54Y-71.12
X129.54Y-73.66
X129.54Y-76.2
X129.54Y-78.74
X129.54Y-81.28
X129.54Y-83.82
X129.54Y-86.36
X129.54Y-88.9
X129.54Y-91.44
X129.54Y-93.98
X129.54Y-96.52
X129.54Y-99.06
X129.54Y-101.6
X129.54Y-104.14
X129.54Y-106.68
X129.54Y-109.22
X129.54Y-111.76
X129.54Y-114.3
X132.08Y-66.04
X132.08Y-68.58
X132.08Y-71.12
X132.08Y-73.66
X132.08Y-76.2
X132.08Y-78.74
X132.08Y-81.28
X132.08Y-83.82
X132.08Y-86.36
X132.08Y-88.9
X132.08Y-91.44
X132.08Y-93.98
X132.08Y-96.52
X132.08Y-99.06
X132.08Y-101.6
X132.08Y-104.14
X132.08Y-106.68
X132.08Y-109.22
X132.08Y-111.76
X132.08Y-114.3
X144.78Y-114.3
X147.32Y-114.3
X149.86Y-114.3
X152.4Y-114.3
X154.94Y-114.3
X157.48Y-114.3
X160.02Y-114.3
X162.56Y-114.3
X165.1Y-114.3
X167.64Y-114.3
X170.18Y-114.3
X172.72Y-114.3
X175.26Y-114.3
X177.8Y-114.3
X185.42Y-71.12
X185.42Y-66.04
X185.42Y-68.58
X187.96Y-71.12
X187.96Y-66.04
X187.96Y-68.58
X190.5Y-71.12
X190.5Y-66.04
X190.5Y-68.58
T6
X220.345Y-77.32
X220.345Y-83.82
X224.845Y-77.32
X224.845Y-83.82
T7
X160.37Y-55.207
X172.41Y-55.207
T8
X132.08Y-55.88
X132.08Y-121.92
X223.52Y-55.88
X223.52Y-121.92
T5
X137.54Y-60.77G85X137.54Y-62.77
G05
X143.24Y-58.77G85X141.24Y-58.77
G05
X143.24Y-64.77G85X141.24Y-64.77
G05
M30
